<svg xmlns="http://www.w3.org/2000/svg" width="89" height="88" viewBox="0 0 89 88" fill="none">
<rect x="0.0996094" width="88" height="88" rx="16" fill="#02285F"/>
<path d="M79.2914 48.6078C78.324 48.6078 77.8747 48.1258 77.8747 47.0828V43.0936H79.7327V41.365H77.8747V38.8967H75.9722V47.0828C75.9722 49.1604 77.1299 50.407 78.9919 50.407C79.2506 50.4046 79.5088 50.3851 79.765 50.3489V48.5953C79.5262 48.6078 79.3926 48.6078 79.2914 48.6078ZM73.8269 42.4121C73.4373 42.0037 72.9698 41.6822 72.4538 41.4677C71.9377 41.2532 71.384 41.1504 70.8274 41.1655C68.4189 41.1655 66.565 43.2183 66.565 45.7987C66.565 48.3792 68.3785 50.3946 70.8719 50.3946C71.5388 50.3804 72.1944 50.2147 72.7914 49.9093C73.3884 49.604 73.9121 49.1666 74.3247 48.6285L72.8432 47.5606C72.6122 47.876 72.3151 48.1342 71.9739 48.3162C71.6328 48.4981 71.2562 48.5992 70.8719 48.6119C70.3178 48.5994 69.7849 48.3901 69.3642 48.0196C68.9435 47.6491 68.661 47.1403 68.5647 46.58H74.9441C75.095 45.8441 75.0723 45.0819 74.878 44.3569C74.6836 43.6319 74.3232 42.9651 73.8269 42.4121ZM68.5647 44.951C68.6335 44.4192 69.2609 42.944 70.8153 42.944C71.3554 42.9618 71.8728 43.1717 72.2789 43.5378C72.685 43.9039 72.9546 44.4035 73.0416 44.951H68.5647ZM63.7072 41.3608V42.167C63.023 41.5154 62.1227 41.1559 61.1895 41.1614C60.0206 41.1974 58.9114 41.6993 58.0971 42.5608C57.2827 43.4222 56.8272 44.5755 56.8272 45.7759C56.8272 46.9763 57.2827 48.1295 58.0971 48.991C58.9114 49.8525 60.0206 50.3544 61.1895 50.3904C62.1006 50.3908 62.9798 50.0461 63.6587 49.4222C63.6587 49.4222 64.0634 52.8005 61.1409 52.8005C60.6318 52.7755 60.1373 52.6172 59.7044 52.3409C59.2716 52.0645 58.9147 51.6792 58.6677 51.2215L57.1497 52.3185C57.5539 53.034 58.137 53.6255 58.8388 54.0317C59.5406 54.438 60.3354 54.6441 61.1409 54.6289C62.231 54.6645 63.2977 54.299 64.1484 53.5984C64.6266 53.151 65.0021 52.6002 65.2478 51.9859C65.4935 51.3715 65.6033 50.7088 65.5692 50.0455V41.3608H63.7072ZM61.1773 48.6078C59.8092 48.6078 58.7486 47.3612 58.7486 45.7655C58.7486 44.1698 59.8415 42.9731 61.1773 42.9731C62.5131 42.9731 63.6465 44.2529 63.6465 45.7655C63.6465 47.2781 62.5374 48.6078 61.1773 48.6078ZM51.4058 50.407C50.237 50.371 49.1278 49.8691 48.3134 49.0076C47.4991 48.1462 47.0436 46.9929 47.0436 45.7925C47.0436 44.5921 47.4991 43.4389 48.3134 42.5774C49.1278 41.7159 50.237 41.214 51.4058 41.178C52.3165 41.176 53.1958 41.5194 53.875 42.142V38.4479H55.7775V50.2242H53.9236V49.3931C53.2381 50.0416 52.338 50.3982 51.4058 50.3904V50.407ZM51.4058 42.9856C50.0377 42.9856 48.9771 44.2322 48.9771 45.8195C48.9771 47.4069 50.07 48.6119 51.4058 48.6119C52.7416 48.6119 53.875 47.3321 53.875 45.8195C53.875 44.307 52.7781 42.9689 51.4058 42.9689V42.9856ZM46.1153 45.94V41.3691H44.2128V45.94C44.2128 47.5648 43.4032 48.6119 42.1363 48.6119C40.8693 48.6119 40.0638 47.5648 40.0638 45.94V41.3691H38.1572V45.94C38.1572 48.6659 39.9261 50.407 42.1363 50.407C44.3464 50.407 46.1153 48.6493 46.1153 45.9234V45.94ZM29.2236 50.3239V38.4313H33.2431C34.8097 38.4313 36.7 39.2623 36.7 41.5146C36.7 42.8484 36.0888 43.7086 35.5423 44.0078C36.0902 44.2366 36.5546 44.6358 36.8704 45.1492C37.1861 45.6626 37.3375 46.2646 37.3031 46.8708C37.3031 48.774 35.7771 50.3032 33.3484 50.3032L29.2236 50.3239ZM33.1258 48.5413C33.5382 48.5604 33.9504 48.4983 34.3401 48.3584C34.6443 48.2313 34.9036 48.0121 35.0836 47.7301C35.2637 47.4481 35.3559 47.1165 35.348 46.7794C35.3543 46.4458 35.2612 46.1182 35.081 45.8404C34.9009 45.5627 34.6424 45.348 34.3401 45.2253C33.9108 45.0567 33.4506 44.9872 32.9922 45.0217H31.1787V48.5413H33.1258ZM32.81 43.318C33.2331 43.3385 33.6562 43.2764 34.0568 43.1352C34.5587 42.8526 34.7206 42.408 34.7206 41.7348C34.7285 41.4606 34.6589 41.19 34.5203 40.9555C34.3817 40.721 34.1799 40.5328 33.9394 40.4134C33.5687 40.2536 33.1666 40.1853 32.7655 40.2139H31.1464V43.318H32.81Z" fill="white"/>
<path d="M18.6309 50.3241H26.3218V38.6226L18.6309 50.3241Z" fill="#FF7400"/>
<path d="M9.08594 38.4313V50.3239L26.3217 38.4313H9.08594Z" fill="#FF2D00"/>
</svg>