<svg xmlns="http://www.w3.org/2000/svg" width="89" height="88" viewBox="0 0 89 88" fill="none">
<rect x="0.700195" width="88" height="88" rx="16" fill="#295EAC"/>
<path d="M8.24414 36.26C8.24414 33.0788 10.8556 30.5 14.0771 30.5H75.3226C78.5441 30.5 81.1555 33.0788 81.1555 36.26V53.54C81.1555 56.7212 78.5441 59.3 75.3226 59.3H14.0771C10.8556 59.3 8.24414 56.7212 8.24414 53.54V36.26Z" fill="#295EAC"/>
<path d="M74.9687 57.5979V58.2557H14.4316V57.5979H74.9687ZM79.27 53.7166V36.0835C79.27 34.0071 77.4629 32.3113 75.1901 32.2073L74.9687 32.2021H14.4316C12.1299 32.2021 10.2503 33.8329 10.1352 35.8837L10.1295 36.0835V53.7166C10.1295 55.86 12.0558 57.5979 14.4316 57.5979V58.2557L14.1724 58.2499C11.6 58.1323 9.53726 56.2712 9.4068 53.9504L9.40039 53.7166V36.0835C9.40039 33.655 11.5142 31.6717 14.1724 31.5501L14.4316 31.5443H74.9687L75.2271 31.5501C77.8854 31.6715 79.9991 33.655 79.9991 36.0835V53.7166L79.9927 53.9504C79.8622 56.2713 77.7996 58.1324 75.2271 58.2499L74.9687 58.2557V57.5979C77.3444 57.5978 79.27 55.86 79.27 53.7166Z" fill="#FFF100"/>
<path fill-rule="evenodd" clip-rule="evenodd" d="M68.7704 51.4844C65.7881 51.4844 62.9706 49.9167 62.9706 46.4973C62.9706 43.0772 65.7881 41.5099 68.7704 41.5099C71.7524 41.5099 74.5698 43.0772 74.5698 46.4973C74.5702 49.9167 71.752 51.4844 68.7704 51.4844ZM18.4336 48.599H25.3622L26.6241 51.2349H30.7034L24.2573 38.3156H19.815L13.6816 51.2349H17.2604L18.4336 48.599ZM34.375 38.4465H31.2368V51.2349H34.375V38.4465ZM45.6514 49.3824V44.253C45.0417 41.8056 42.164 41.6409 40.5347 41.6409C38.1672 41.6409 35.7127 42.0505 35.365 44.9538H38.4252C38.5121 44.4017 38.6448 43.5046 40.1658 43.5046C40.9475 43.5046 42.2918 43.5582 42.2918 44.6091C42.2918 45.1433 41.7054 45.3038 41.2274 45.3571L38.3625 45.6957C36.4294 45.9272 34.9957 46.8715 34.9957 48.7236C34.9957 50.6828 36.7768 51.4844 38.5149 51.4844C40.5783 51.4844 41.6832 50.7006 42.3788 50.1127C42.4439 50.6473 42.4875 50.7897 42.6611 51.2349H45.6857L45.6514 49.3824ZM62.5197 44.8771C62.5197 43.9718 62.121 43.3044 61.4878 42.839C60.6627 42.2323 59.4397 41.9685 58.182 41.9685C56.3649 41.9685 55.5311 43.0194 55.1463 43.4823C54.377 42.467 53.6288 41.9685 51.9832 41.9685C49.6555 41.9685 49.5748 43.1638 49.4792 43.4759V42.0868H46.3594V51.2349H49.6077V45.7916C49.6077 44.7585 50.0566 44.1731 51.4671 44.2012C52.8366 44.2285 52.8796 45.0613 52.8796 45.8626V51.2349H56.2554V45.8803C56.2554 44.7585 56.5346 44.165 58.0299 44.2012C59.1619 44.2285 59.6094 44.6868 59.5269 45.809V51.2349H62.5197V44.8771ZM68.7704 43.6111C66.5179 43.6111 66.1009 45.2857 66.1009 46.4973C66.1009 47.7082 66.5179 49.3828 68.7704 49.3828C71.0222 49.3824 71.4393 47.7082 71.4393 46.4973C71.4393 45.2857 71.0222 43.6115 68.7704 43.6111ZM21.8326 41.07L24.1762 46.1281H19.6276L21.8326 41.07ZM42.164 47.8329C42.164 48.9909 40.7951 49.703 39.4484 49.703C38.8623 49.703 38.0366 49.4357 38.0366 48.5631C38.0366 47.53 38.9708 47.2986 40.1006 47.1385C41.3604 46.978 41.8599 46.8179 42.164 46.6216V47.8329ZM75.7188 41.1393C75.7188 41.9849 75.1008 42.4766 74.4108 42.4766C73.717 42.4766 73.0988 41.9849 73.0988 41.1393C73.0988 40.2936 73.717 39.8023 74.4108 39.8023C75.1008 39.802 75.7188 40.2936 75.7188 41.1393ZM75.3426 41.1393C75.3426 40.5237 74.9145 40.1133 74.4108 40.1133C73.8927 40.1133 73.4753 40.5237 73.4753 41.1393C73.4753 41.7548 73.8927 42.1688 74.4108 42.1652V42.1688C74.9145 42.1688 75.3426 41.7548 75.3426 41.1393ZM75.0149 41.8574H74.6592L74.3346 41.2521H74.1933V41.8574H73.8927V40.4175H74.4174C74.7797 40.4175 74.9938 40.5237 74.9938 40.8528C74.9938 41.1176 74.8421 41.2138 74.6557 41.2276L75.0149 41.8574ZM74.673 40.8208C74.673 40.6724 74.5175 40.6618 74.4036 40.6618H74.1933V41.0086H74.4586C74.5934 41.0086 74.6727 40.9802 74.673 40.8208Z" fill="#FEF001"/>
</svg>