<svg xmlns="http://www.w3.org/2000/svg" width="89" height="88" viewBox="0 0 89 88" fill="none">
<rect x="0.900391" width="88" height="88" rx="16" fill="#FFDF01"/>
<path d="M76.2507 56.6645H8.90039L9.67357 53.0601L77.0277 53.0582L76.2507 56.6645Z" fill="white"/>
<path d="M37.9502 34.6813C38.5104 34.6813 41.5818 34.7212 43.248 36.983C45.2028 39.6295 43.8516 44.0015 43.8438 44.026H33.166C32.4462 49.5061 39.2779 47.2612 40.6338 46.2281L42.2539 48.9391C40.462 50.2793 37.8779 51.0054 35.5547 51.0055C26.5947 51.0055 28.6664 39.7833 32.8389 36.5426C34.6899 35.1042 36.5733 34.6813 37.9502 34.6813ZM62 34.9703H66.3242L65.542 38.6119H61.2207L60.1699 43.5045C59.8614 44.9447 59.5018 46.221 60.1035 46.8619C60.5436 47.3255 61.4405 47.6118 63.6719 47.3385L62.9443 50.7184C59.6517 51.6006 57.0508 50.2037 56.2891 48.7408C55.4721 47.1668 55.6216 45.7057 56.0234 43.8375L58.6934 31.3356H62.7676L62 34.9703ZM16.5098 40.3658H23.6592L25.6035 31.3356H29.6729L25.5117 50.7184H21.4365L22.876 44.0016H15.7236L14.2871 50.7184H10.1797L14.3369 31.3356H18.4482L16.5098 40.3658ZM80.1572 38.4352L70.8779 47.0787H78.3027L77.5176 50.7184H64.793L65.543 47.2164L74.7773 38.6119H67.3945L68.1729 34.9703H80.9004L80.1572 38.4352ZM49.0762 36.3385C50.7482 34.9568 53.2503 34.2503 56.1162 34.9703L55.332 38.6119C53.7076 38.4781 52.3531 38.5308 51.4199 39.4752C50.7421 40.1633 50.4451 41.2813 50.0566 43.0699L48.4131 50.7164H44.3359L46.3145 41.4967C46.8401 39.0611 47.6498 37.5167 49.0762 36.3385ZM38.2607 37.9088C35.6846 37.6751 34.2962 39.8179 34.0654 40.6891H40.6006C40.6062 40.6558 41.0148 38.1617 38.2607 37.9088Z" fill="black"/>
</svg>