<svg xmlns="http://www.w3.org/2000/svg" width="89" height="88" viewBox="0 0 89 88" fill="none">
<rect x="0.5" width="88" height="88" rx="16" fill="#FF5000"/>
<path d="M46.2831 29.24C44.2072 33.3288 40.667 34.3706 36.7389 34.8733C35.4505 35.0415 33.8123 35.0759 32.3022 35.0759C31.8912 35.0759 31.4936 35.074 31.1094 35.0721V40.9635H34.4412C38.9926 40.9635 50.0202 39.9829 53.3159 29.2419L46.2831 29.24Z" fill="white"/>
<path d="M57.166 33.8717L51.7007 41.342L49.6764 38.4499C48.3329 39.549 46.8341 40.6501 45.1254 41.3707C44.6054 41.5886 43.9972 41.8256 43.4487 42.0091L47.1707 46.616L38.1346 57.5923V42.9554H31.1117V58.1579H46.4519L51.7007 51.3853L56.6957 58.1579H65.6054L56.4241 46.6179L61.1095 39.9581H66.4751V58.1599H73.6396V39.9581H80.5V33.8717H57.166ZM19.153 33.411C11.1303 33.411 8.51147 37.1825 8.5 41.2694C8.5 41.2771 8.5 41.2847 8.5 41.2923V41.3019C8.50766 51.63 22.6588 47.2258 22.6588 51.2514C22.6588 52.6087 21.1544 53.2165 18.1456 53.2204C15.1846 53.2204 12.0172 52.5016 8.7657 51.4292V57.2917C10.5301 58.0071 13.3114 58.7465 18.031 58.76H18.2221C25.2241 58.7199 29.787 56.5675 29.787 50.8042C29.787 40.4665 15.3892 44.8765 15.3892 40.8144C15.3892 39.419 16.9089 38.857 19.1741 38.857C21.9496 38.857 25.5299 39.7879 28.3055 40.6883V34.8217C25.9983 34.1622 22.7142 33.4072 19.153 33.4072V33.411Z" fill="#1A1A1A"/>
</svg>