<svg xmlns="http://www.w3.org/2000/svg" width="89" height="88" viewBox="0 0 89 88" fill="none">
<rect x="0.0996094" width="88" height="88" rx="16" fill="#D4002A"/>
<path d="M69.4883 32.7236C72.6751 31.1836 77.2533 31.5245 80.0996 33.583L78.0283 39.1436C76.5723 37.9599 74.8265 37.1976 72.8691 37.5059C72.2057 37.6518 71.4774 38.0898 71.2344 38.7705C70.8306 40.0671 71.8821 40.9752 72.7715 41.8018C74.9713 43.6014 77.0741 45.7566 76.6533 48.7383C76.4923 51.5279 74.4213 54.121 71.8984 55.2559C68.2104 57.1201 63.3577 56.1308 60.1709 53.8623V53.7812L62.0801 48.3506C64.0533 49.2907 66.0589 50.4414 68.4854 50.2148C69.3266 50.1013 70.3127 49.583 70.5234 48.6748C70.7495 47.524 69.7953 46.7299 68.9863 46.0322C67.0132 44.5574 64.6839 42.6445 64.7324 40.0186C64.5545 36.858 66.706 33.9715 69.4883 32.7236ZM28.0938 55.3037H23.0303V49.5664L16.8994 49.5488L13.9072 55.2881L8.09961 55.3037L20.1025 32.1406H28.0938V55.3037ZM38.9482 47.6855L47.4238 32.1406H53.377L41.083 55.2881L33.0273 55.3037V32.1406H38.9307L38.9482 47.6855ZM54.7031 55.3037H48.5234L56.8867 32.1406H62.5L54.7031 55.3037ZM19.3252 44.7031H23.0303V37.6357L19.3252 44.7031Z" fill="white"/>
</svg>