<svg xmlns="http://www.w3.org/2000/svg" width="89" height="88" viewBox="0 0 89 88" fill="none">
<rect x="0.700195" width="88" height="88" rx="16" fill="#0E8102"/>
<path d="M44.5038 49.2005C23.5738 49.2005 8.7002 50.1062 8.7002 50.1062V50.5H45.7384L46.1312 49.2005C45.6576 49.1992 45.0874 49.2005 44.5038 49.2005ZM47.2536 49.2005L46.9169 50.5H80.7002V50.1062C80.7002 50.1062 66.7447 49.2745 47.2536 49.2005Z" fill="#FFEA00"/>
<path d="M18.3716 37.5L16.415 46.8668H23.4585L23.738 45.107H18.9306L19.3778 42.9498H23.738L24.0734 41.0764H19.7132L20.1045 39.3166H24.9678L25.2473 37.5H18.3716ZM41.9057 39.7707C39.1599 39.7707 38.0508 41.2535 37.6014 43.4039C37.1519 45.5521 38.2006 47.0939 40.3964 47.0939C43.0058 47.0939 44.2513 45.6088 44.7008 43.4607C45.1524 41.3103 44.4391 39.7707 41.9057 39.7707ZM57.6138 39.7707C54.868 39.7707 53.8148 41.2558 53.3654 43.4039C52.9159 45.5543 53.9087 47.0939 56.1045 47.0939C58.3316 47.0939 59.5904 46.0176 60.1852 44.369H58.1169C57.8352 45.0389 57.3813 45.5044 56.4399 45.5044C55.2078 45.5044 55.0938 44.4348 55.3219 43.3472C55.55 42.2595 56.1022 41.19 57.3343 41.19C58.2846 41.19 58.5462 41.8666 58.5082 42.6659H60.5206C60.6414 40.9424 59.8208 39.7707 57.6138 39.7707ZM50.4026 39.8843C49.7855 39.8843 48.786 40.0341 48.2784 40.5655L48.3902 40.0546H46.3778C46.3107 40.5042 44.3095 50.5 44.3095 50.5H46.266L47.1045 46.4127C47.4913 47.0212 48.5825 47.1507 49.061 47.1507C51.0309 47.1507 51.9365 45.2137 52.3032 43.4607C52.6878 41.6237 52.3211 39.8843 50.4026 39.8843ZM65.2722 39.8843C61.7572 39.7865 61.9181 42.0983 61.9181 42.0983H63.7629C63.7629 42.0983 63.7382 41.19 65.0486 41.19C65.0486 41.19 66.2314 41.1355 66.0548 41.9847C66.0548 41.9847 66.0301 42.7182 65.2163 42.6659C65.2163 42.6659 61.3211 42.2549 61.0237 45.1638C61.0237 45.1638 60.8627 47.2074 63.148 47.2074C63.148 47.2074 64.6483 47.162 65.3281 46.4127C65.3281 46.4127 65.5181 46.8668 66.1666 46.8668H67.2846L67.62 45.5044L67.4524 45.3908C67.4524 45.3908 67.3161 45.409 67.3966 45.0502L68.1233 41.4738C68.4386 39.9138 65.2722 39.8843 65.2722 39.8843ZM25.9181 40.0545L24.9678 44.4824C24.9186 44.7141 24.8381 45.1387 24.856 45.561C24.8897 46.5534 26.0881 47.037 26.7567 47.037C27.6935 47.037 28.2906 46.8009 28.7691 46.4126V46.8667H30.7815C30.8262 46.458 30.8776 46.0833 30.9491 45.6746L32.123 40.0545H30.1106L29.2721 43.9715C29.0373 44.9661 28.3195 45.1637 27.8187 45.1637C26.9556 45.1637 26.8997 44.7822 27.0361 44.1418L27.9305 40.0545H25.9181ZM33.4647 40.0545C33.3866 40.5586 32.1231 46.8667 32.1231 46.8667H34.2473L34.974 43.3471C35.0635 42.902 35.0343 42.441 35.3095 42.0414C35.5286 41.7212 36.0876 41.6145 36.4275 41.5872H37.3778L37.7691 40.0545C36.8456 40.0545 36.2441 40.034 35.4771 40.5654V40.0545H33.4647ZM69.9678 40.0545C69.8895 40.5586 68.6262 46.8667 68.6262 46.8667H70.7504L71.4213 43.3471C71.5107 42.902 71.5375 42.441 71.8126 42.0414C72.0339 41.7212 72.5907 41.6145 72.9306 41.5872H73.825L74.2722 40.0545C73.3487 40.0545 72.7472 40.034 71.9803 40.5654V40.0545H69.9678ZM41.6262 41.1899C42.8583 41.1899 42.9164 42.3162 42.6883 43.4038C42.4603 44.4915 42.0913 45.5043 40.7318 45.5043C39.4998 45.5043 39.3857 44.4348 39.6138 43.3471C39.8419 42.2594 40.3942 41.1899 41.6262 41.1899ZM49.5082 41.4737C50.4227 41.4737 50.6777 42.357 50.4585 43.4038C50.2394 44.4529 49.7005 45.334 48.6697 45.334C47.5852 45.334 47.4667 44.3417 47.6635 43.4038C47.8603 42.4638 48.4237 41.4737 49.5082 41.4737ZM65.5517 43.858C65.5517 43.858 65.2588 45.7313 63.7629 45.7313C63.7629 45.7313 62.9244 45.788 62.9244 45.1069C62.9244 45.1069 62.9446 44.2349 64.1542 44.0851C64.1542 44.0851 65.0933 44.0193 65.5517 43.858Z" fill="white"/>
</svg>